<svg xmlns="http://www.w3.org/2000/svg" width="32.151" height="38.706" viewBox="0 0 32.151 38.706"><defs><style>.a{fill:#001509;}.b{fill:#d3600c;}</style></defs><g transform="translate(-118.684 -168.415)"><path class="a" d="M141.666,198.181s1.074-4.811-4.639-11.082a75.051,75.051,0,0,0-5.966-5.326s-7.994-5.842-10.055-8.848a11.531,11.531,0,0,1-2.319-4.51s-.215,3.887,3.737,8.44c0,0,3.136,4.123,5.8,6.958,2.412,2.567,5.658,6.007,7.345,9.965,0,0,2.1,4.166-1.031,6.958,0,0,1.735,5.114-2.9,3.138C131.632,203.875,141.15,207.673,141.666,198.181Z"/><path class="b" d="M249.1,195.518s1.675,10.309-11.254,11.6c0,0-9.449.558-9.965-8.934,0,0-1.074-4.811,4.639-11.082a75.059,75.059,0,0,1,5.966-5.326s7.994-5.842,10.055-8.848a11.531,11.531,0,0,0,2.319-4.51s.215,3.887-3.737,8.44c0,0-3.136,4.123-5.8,6.958-2.412,2.567-5.658,6.007-7.345,9.965,0,0-2.1,4.166,1.031,6.958,0,0,2.835,2.234,7.474.258C242.49,200.994,248.116,197.687,249.1,195.518Z" transform="translate(-100.032)"/><circle class="b" cx="3.433" cy="3.433" r="3.433" transform="translate(131.448 175.677)"/></g></svg>